<?xml version="1.0" encoding="utf-8"?>
<!-- Generator: Adobe Illustrator 22.0.1, SVG Export Plug-In . SVG Version: 6.00 Build 0)  -->
<svg version="1.1" id="Laag_1" xmlns="http://www.w3.org/2000/svg" xmlns:xlink="http://www.w3.org/1999/xlink" x="0px" y="0px"
	 viewBox="0 0 100 103" style="enable-background:new 0 0 100 103;" xml:space="preserve">
<style type="text/css">
	.st0{enable-background:new    ;}
	.st1{fill:#FFFFFF;}
	.st2{display:none;enable-background:new    ;}
	.st3{display:inline;}
	.st4{fill:none;stroke:#000000;stroke-width:4;stroke-miterlimit:10;}
</style>
<g class="st0">
	<g>
		<g>
			<polygon class="st1" points="95,15.6 84.4,5 50,39.4 15.6,5 5,15.6 39.4,50 5,84.4 15.6,95 50,60.6 84.4,95 95,84.4 60.6,50 			
				"/>
		</g>
	</g>
</g>
<g class="st2">
	<g class="st3">
		<g>
			<path d="M60.6,50l29.1-29.1c2.9-2.9,2.9-7.7,0-10.6c-2.9-2.9-7.7-2.9-10.6,0L50,39.4L20.9,10.3c-2.9-2.9-7.7-2.9-10.6,0
				s-2.9,7.7,0,10.6L39.4,50L10.3,79.1c-2.9,2.9-2.9,7.7,0,10.6c2.9,2.9,7.7,2.9,10.6,0L50,60.6l29.1,29.1c2.9,2.9,7.7,2.9,10.6,0
				c2.9-2.9,2.9-7.7,0-10.6L60.6,50z"/>
		</g>
	</g>
</g>
<g class="st2">
	<g class="st3">
		<g>
			<polygon points="91.5,12.1 87.9,8.5 50,46.5 12.1,8.5 8.5,12.1 46.5,50 8.5,87.9 12.1,91.5 50,53.5 87.9,91.5 91.5,87.9 53.5,50 
							"/>
		</g>
	</g>
</g>
<g class="st2">
	<g class="st3">
		<g>
			<path d="M53.5,50l36.2-36.2c1-1,1-2.6,0-3.5s-2.6-1-3.5,0L50,46.5L13.8,10.3c-1-1-2.6-1-3.5,0s-1,2.6,0,3.5L46.5,50L10.3,86.2
				c-1,1-1,2.6,0,3.5s2.6,1,3.5,0L50,53.5l36.2,36.2c1,1,2.6,1,3.5,0s1-2.6,0-3.5L53.5,50z"/>
		</g>
	</g>
</g>
<g class="st2">
	<g class="st3">
		<g>
			<polygon points="70.5,38 62,29.5 50,41.5 38,29.5 29.5,38 41.5,50 29.5,62 38,70.5 50,58.5 62,70.5 70.5,62 58.5,50 			"/>
		</g>
	</g>
</g>
<g class="st2">
	<g class="st3">
		<g>
			<path d="M58.5,50l7.8-7.8c2.3-2.3,2.3-6.1,0-8.5c-2.3-2.3-6.1-2.3-8.5,0L50,41.5l-7.8-7.8c-2.3-2.3-6.1-2.3-8.5,0
				c-2.3,2.3-2.3,6.1,0,8.5l7.8,7.8l-7.8,7.8c-2.3,2.3-2.3,6.1,0,8.5s6.1,2.3,8.5,0l7.8-7.8l7.8,7.8c2.3,2.3,6.1,2.3,8.5,0
				c2.3-2.3,2.3-6.1,0-8.5L58.5,50z"/>
		</g>
	</g>
</g>
<g class="st2">
	<g class="st3">
		<g>
			<path d="M52.8,50l13.4-13.4c0.8-0.8,0.8-2,0-2.8s-2-0.8-2.8,0L50,47.2L36.6,33.7c-0.8-0.8-2-0.8-2.8,0c-0.8,0.8-0.8,2,0,2.8
				L47.2,50L33.7,63.4c-0.8,0.8-0.8,2,0,2.8s2,0.8,2.8,0L50,52.8l13.4,13.4c0.8,0.8,2,0.8,2.8,0s0.8-2,0-2.8L52.8,50z"/>
		</g>
	</g>
</g>
<g class="st2">
	<g class="st3">
		<g>
			<polygon points="67.7,35.2 64.8,32.3 50,47.2 35.2,32.3 32.3,35.2 47.2,50 32.3,64.8 35.2,67.7 50,52.8 64.8,67.7 67.7,64.8 
				52.8,50 			"/>
		</g>
	</g>
</g>
<g class="st2">
	<g class="st3">
		<g>
			<circle class="st4" cx="50" cy="50" r="43.1"/>
		</g>
	</g>
</g>
</svg>
