<?xml version="1.0" encoding="utf-8"?>
<!-- Generator: Adobe Illustrator 22.0.1, SVG Export Plug-In . SVG Version: 6.00 Build 0)  -->
<svg version="1.1" id="Laag_1" xmlns="http://www.w3.org/2000/svg" xmlns:xlink="http://www.w3.org/1999/xlink" x="0px" y="0px"
	 viewBox="0 0 364 146.2" style="enable-background:new 0 0 364 146.2;" xml:space="preserve">
<style type="text/css">
	.st0{enable-background:new    ;}
	.st1{fill:#BE1622;}
	.st2{fill:none;stroke:#000000;stroke-width:0.75;stroke-miterlimit:10;}
	.st3{fill:none;}
	.st4{font-family:'AvenirNextLTPro-Bold';}
	.st5{font-size:20px;}
</style>
<g class="st0">
	<g>
		<g>
			<polygon class="st1" points="227.1,32.6 216.5,22 182.1,56.4 147.7,22 137.1,32.6 171.5,67 137.1,101.4 147.7,112 182.1,77.6 
				216.5,112 227.1,101.4 192.7,67 			"/>
		</g>
	</g>
</g>
<g class="st0">
	<g>
		<g>
			<polygon class="st1" points="120.8,47.1 114.7,41 94.8,60.9 74.9,41 68.8,47.1 88.7,67 68.8,86.9 74.9,93 94.8,73.1 114.7,93 
				120.8,86.9 100.9,67 			"/>
		</g>
	</g>
</g>
<g class="st0">
	<g>
		<g>
			<polygon class="st1" points="295.3,47.1 289.2,41 269.3,60.9 249.4,41 243.3,47.1 263.2,67 243.3,86.9 249.4,93 269.3,73.1 
				289.2,93 295.3,86.9 275.4,67 			"/>
		</g>
	</g>
</g>
<line class="st2" x1="355.5" y1="67.6" x2="295.3" y2="67.6"/>
<line class="st2" x1="68.8" y1="67.6" x2="8.6" y2="67.6"/>
<rect x="38.5" y="119.3" class="st3" width="287.2" height="27.3"/>
<text transform="matrix(1 0 0 1 38.4792 134.4431)" class="st4 st5">Amsterdamse archiefbeelden</text>
</svg>
